<?xml version="1.0" standalone="no"?><svg xmlns="http://www.w3.org/2000/svg" viewBox="0 0 1440 320"><path fill="#ff5252" fill-opacity="0.5" d="M0,32L26.7,48C53.3,64,107,96,160,122.7C213.3,149,267,171,320,170.7C373.3,171,427,149,480,144C533.3,139,587,149,640,160C693.3,171,747,181,800,197.3C853.3,213,907,235,960,224C1013.3,213,1067,171,1120,128C1173.3,85,1227,43,1280,48C1333.3,53,1387,107,1413,133.3L1440,160L1440,320L1413.3,320C1386.7,320,1333,320,1280,320C1226.7,320,1173,320,1120,320C1066.7,320,1013,320,960,320C906.7,320,853,320,800,320C746.7,320,693,320,640,320C586.7,320,533,320,480,320C426.7,320,373,320,320,320C266.7,320,213,320,160,320C106.7,320,53,320,27,320L0,320Z"></path></svg>